<svg width="256" height="256" viewBox="0 0 256 256" fill="none" xmlns="http://www.w3.org/2000/svg">
<path d="M169.648 239.914H42.0775C40.5884 239.914 39.5577 238.427 40.0806 237.033L55.8484 194.985C56.0858 194.352 56.6093 193.869 57.2594 193.683L135.665 171.282C136.266 171.11 136.762 170.683 137.021 170.114L164.447 109.775C164.932 108.709 166.185 108.233 167.255 108.709L215.089 129.968C216.15 130.44 216.639 131.674 216.189 132.745L171.614 238.609C171.281 239.4 170.507 239.914 169.648 239.914Z" fill="#13267F"/>
<path d="M86.3516 15.986H213.922C215.412 15.986 216.442 17.4733 215.919 18.8676L200.152 60.915C199.914 61.5481 199.391 62.0311 198.741 62.2168L120.335 84.6185C119.734 84.7903 119.238 85.2173 118.979 85.7866L91.5526 146.125C91.0681 147.191 89.8148 147.667 88.7448 147.192L40.9109 125.932C39.8495 125.46 39.3607 124.226 39.8115 123.156L84.386 17.2911C84.719 16.5003 85.4935 15.986 86.3516 15.986Z" fill="#13267F"/>
</svg>
