<svg width="605" height="118" viewBox="0 0 605 118" fill="none" xmlns="http://www.w3.org/2000/svg">
    <path
        d="M122.997 30.3437C122.997 15.5026 135.252 5.18335 153.057 5.18335C170.168 5.18335 181.035 14.6909 181.498 29.9958H166.699C166.352 22.6912 161.15 18.4012 152.826 18.4012C143.692 18.4012 137.796 22.8072 137.796 29.8799C137.796 35.9091 141.033 39.2716 148.085 40.8948L161.381 43.7935C175.833 46.924 182.885 54.3446 182.885 66.9827C182.885 82.7514 170.63 92.9547 152.016 92.9547C133.98 92.9547 122.188 83.3311 121.841 68.1422H136.639C136.755 75.3308 142.536 79.6208 152.016 79.6208C161.843 79.6208 168.087 75.3308 168.087 68.2581C168.087 62.5767 165.196 59.2143 158.259 57.707L144.848 54.6924C130.512 51.5619 122.997 43.3297 122.997 30.3437Z"
        fill="#e1e8e3" />
    <path
        d="M206.794 91.4474L188.296 34.1699H202.979L210.494 58.7505C211.765 63.2724 212.922 68.2581 213.962 73.5916C215.003 68.0262 216.043 64.4319 217.893 58.7505L225.755 34.1699H240.091L247.722 58.7505C248.415 61.0694 250.728 69.6495 251.421 73.4757C252.346 69.1857 254.196 62.3449 255.236 58.7505L262.867 34.1699H277.781L258.011 91.4474H244.831L236.969 66.6349C234.657 59.0984 233.385 53.6489 232.923 50.7502C232.345 53.417 231.304 57.4751 228.414 66.8668L220.552 91.4474H206.794Z"
        fill="#e1e8e3" />
    <path
        d="M293.375 22.6912C288.519 22.6912 284.704 18.865 284.704 14.1112C284.704 9.35742 288.519 5.64714 293.375 5.64714C297.999 5.64714 301.815 9.35742 301.815 14.1112C301.815 18.865 297.999 22.6912 293.375 22.6912ZM286.322 91.4474V34.1699H300.427V91.4474H286.322Z"
        fill="#e1e8e3" />
    <path
        d="M315 117.999V34.1699H328.065L328.99 42.8659C332.458 36.2569 339.973 32.4307 348.644 32.4307C364.714 32.4307 375.351 44.1413 375.351 62.113C375.351 79.9687 365.639 92.9547 348.644 92.9547C340.089 92.9547 332.689 89.5922 329.105 83.7949V117.999H315ZM329.221 62.8086C329.221 73.1279 335.58 80.2006 345.291 80.2006C355.234 80.2006 361.13 73.0119 361.13 62.8086C361.13 52.6054 355.234 45.3008 345.291 45.3008C335.58 45.3008 329.221 52.4894 329.221 62.8086Z"
        fill="#e1e8e3" />
    <path d="M400.802 91.4474H386.813V5.18335H400.802V91.4474Z" fill="#e1e8e3" />
    <path
        d="M412.246 62.6927C412.246 44.837 425.079 32.5467 442.768 32.5467C460.457 32.5467 473.29 44.837 473.29 62.6927C473.29 80.5484 460.457 92.8387 442.768 92.8387C425.079 92.8387 412.246 80.5484 412.246 62.6927ZM426.35 62.6927C426.35 73.1279 433.056 80.2006 442.768 80.2006C452.479 80.2006 459.185 73.1279 459.185 62.6927C459.185 52.2575 452.479 45.1848 442.768 45.1848C433.056 45.1848 426.35 52.2575 426.35 62.6927Z"
        fill="#e1e8e3" />
    <path
        d="M501.466 92.9547C489.326 92.9547 481.927 85.882 481.927 75.099C481.927 64.5478 489.557 57.9389 503.084 56.8954L520.195 55.62V54.3446C520.195 46.5762 515.571 43.4456 508.402 43.4456C500.078 43.4456 495.454 46.924 495.454 52.9532H483.43C483.43 40.547 493.604 32.4307 509.096 32.4307C524.473 32.4307 533.953 40.7788 533.953 56.6635V91.4474H521.583L520.542 82.9833C518.114 88.8966 510.368 92.9547 501.466 92.9547ZM506.09 82.2876C514.761 82.2876 520.311 77.07 520.311 68.2581V65.2435L508.402 66.1711C499.616 66.9827 496.263 69.8814 496.263 74.5192C496.263 79.7368 499.731 82.2876 506.09 82.2876Z"
        fill="#e1e8e3" />
    <path
        d="M571.28 92.9547C554.747 92.9547 544.457 80.7803 544.457 63.0405C544.457 45.1848 554.862 32.4307 572.089 32.4307C580.066 32.4307 587.119 35.7932 590.703 41.4745V5.18335H604.692V91.4474H591.743L590.818 82.5195C587.35 89.1284 579.951 92.9547 571.28 92.9547ZM574.401 79.9687C584.228 79.9687 590.587 72.896 590.587 62.5768C590.587 52.2575 584.228 45.0689 574.401 45.0689C564.574 45.0689 558.562 52.3735 558.562 62.5768C558.562 72.78 564.574 79.9687 574.401 79.9687Z"
        fill="#e1e8e3" />
    <path
        d="M55.2879 95.447H1.30235C0.672196 95.447 0.236024 94.8176 0.457284 94.2276L7.12991 76.4339C7.23037 76.166 7.45191 75.9616 7.72702 75.883L40.9068 66.4031C41.1613 66.3304 41.371 66.1496 41.4805 65.9087L53.087 40.3746C53.292 39.9235 53.8224 39.7221 54.2751 39.9233L74.5176 48.9199C74.9667 49.1196 75.1735 49.6419 74.9828 50.0949L56.1197 94.8947C55.9788 95.2294 55.6511 95.447 55.2879 95.447Z"
        fill="#e1e8e3" />
    <path
        d="M20.0382 0.666046H74.0238C74.654 0.666046 75.0901 1.29544 74.8689 1.88547L68.1963 19.6791C68.0958 19.947 67.8743 20.1514 67.5991 20.23L34.4193 29.71C34.1649 29.7827 33.9552 29.9634 33.8456 30.2043L22.2392 55.7385C22.0342 56.1895 21.5038 56.391 21.051 56.1897L0.808617 47.1931C0.359459 46.9935 0.152626 46.4711 0.343369 46.0181L19.2064 1.21834C19.3474 0.883671 19.6751 0.666046 20.0382 0.666046Z"
        fill="#e1e8e3" />
</svg>